<?xml version="1.0" encoding="us-ascii" standalone="no"?><svg xmlns="http://www.w3.org/2000/svg" xmlns:xlink="http://www.w3.org/1999/xlink" contentStyleType="text/css" height="213px" preserveAspectRatio="none" style="width:438px;height:213px;background:#FFFFFF;" version="1.1" viewBox="0 0 438 213" width="438px" zoomAndPan="magnify"><defs/><g><ellipse cx="218" cy="20" fill="#222222" rx="10" ry="10" style="stroke:#222222;stroke-width:1.0;"/><polygon fill="#F1F1F1" points="32,50,72,50,84,62,72,74,32,74,20,62,32,50" style="stroke:#181818;stroke-width:0.5;"/><text fill="#000000" font-family="sans-serif" font-size="11" lengthAdjust="spacing" textLength="20" x="56" y="84.2104">yes</text><text fill="#000000" font-family="sans-serif" font-size="11" lengthAdjust="spacing" textLength="40" x="32" y="65.8081">n == 0</text><rect fill="#F1F1F1" height="33.9688" rx="12.5" ry="12.5" style="stroke:#181818;stroke-width:0.5;" width="74" x="15" y="106.8047"/><text fill="#000000" font-family="sans-serif" font-size="12" lengthAdjust="spacing" textLength="54" x="25" y="127.9434">Return 0</text><polygon fill="#F1F1F1" points="121,50,161,50,173,62,161,74,121,74,109,62,121,50" style="stroke:#181818;stroke-width:0.5;"/><text fill="#000000" font-family="sans-serif" font-size="11" lengthAdjust="spacing" textLength="20" x="145" y="84.2104">yes</text><text fill="#000000" font-family="sans-serif" font-size="11" lengthAdjust="spacing" textLength="40" x="121" y="65.8081">n == 1</text><text fill="#000000" font-family="sans-serif" font-size="11" lengthAdjust="spacing" textLength="14" x="173" y="59.4058">no</text><rect fill="#F1F1F1" height="33.9688" rx="12.5" ry="12.5" style="stroke:#181818;stroke-width:0.5;" width="74" x="104" y="106.8047"/><text fill="#000000" font-family="sans-serif" font-size="12" lengthAdjust="spacing" textLength="54" x="114" y="127.9434">Return 1</text><rect fill="#F1F1F1" height="33.9688" rx="12.5" ry="12.5" style="stroke:#181818;stroke-width:0.5;" width="230" x="197" y="103.4023"/><text fill="#000000" font-family="sans-serif" font-size="12" lengthAdjust="spacing" textLength="210" x="207" y="124.541">Return fibrec(n - 1) + fibrec(n - 2)</text><ellipse cx="218" cy="191.7734" fill="none" rx="11" ry="11" style="stroke:#222222;stroke-width:1.0;"/><ellipse cx="218" cy="191.7734" fill="#222222" rx="6" ry="6" style="stroke:#222222;stroke-width:1.0;"/><line style="stroke:#181818;stroke-width:1.0;" x1="52" x2="52" y1="74" y2="106.8047"/><polygon fill="#181818" points="48,96.8047,52,106.8047,56,96.8047,52,100.8047" style="stroke:#181818;stroke-width:1.0;"/><line style="stroke:#181818;stroke-width:1.0;" x1="52" x2="52" y1="140.7734" y2="160.7734"/><polygon fill="#181818" points="48,150.7734,52,160.7734,56,150.7734,52,154.7734" style="stroke:#181818;stroke-width:1.0;"/><line style="stroke:#181818;stroke-width:1.0;" x1="141" x2="141" y1="74" y2="106.8047"/><polygon fill="#181818" points="137,96.8047,141,106.8047,145,96.8047,141,100.8047" style="stroke:#181818;stroke-width:1.0;"/><line style="stroke:#181818;stroke-width:1.0;" x1="141" x2="141" y1="140.7734" y2="160.7734"/><polygon fill="#181818" points="137,150.7734,141,160.7734,145,150.7734,141,154.7734" style="stroke:#181818;stroke-width:1.0;"/><line style="stroke:#181818;stroke-width:1.0;" x1="84" x2="109" y1="62" y2="62"/><polygon fill="#181818" points="99,58,109,62,99,66,103,62" style="stroke:#181818;stroke-width:1.0;"/><line style="stroke:#181818;stroke-width:1.0;" x1="218" x2="218" y1="30" y2="35"/><line style="stroke:#181818;stroke-width:1.0;" x1="218" x2="52" y1="35" y2="35"/><line style="stroke:#181818;stroke-width:1.0;" x1="52" x2="52" y1="35" y2="50"/><polygon fill="#181818" points="48,40,52,50,56,40,52,44" style="stroke:#181818;stroke-width:1.0;"/><line style="stroke:#181818;stroke-width:1.0;" x1="173" x2="312" y1="62" y2="62"/><line style="stroke:#181818;stroke-width:1.0;" x1="312" x2="312" y1="62" y2="103.4023"/><polygon fill="#181818" points="308,93.4023,312,103.4023,316,93.4023,312,97.4023" style="stroke:#181818;stroke-width:1.0;"/><line style="stroke:#181818;stroke-width:1.0;" x1="312" x2="312" y1="137.3711" y2="160.7734"/><polygon fill="#181818" points="308,150.7734,312,160.7734,316,150.7734,312,154.7734" style="stroke:#181818;stroke-width:1.0;"/><line style="stroke:#181818;stroke-width:1.0;" x1="52" x2="312" y1="160.7734" y2="160.7734"/><line style="stroke:#181818;stroke-width:1.0;" x1="218" x2="218" y1="160.7734" y2="180.7734"/><polygon fill="#181818" points="214,170.7734,218,180.7734,222,170.7734,218,174.7734" style="stroke:#181818;stroke-width:1.0;"/><!--SRC=[Aov9B2hXoanJqCXJiBLLCD1KACb8pLFGg4mjrkHIKB0AIYqfBSfJCB3cIiqfJeMhCyIXpX2Y3gWg7rauBJEfA3KPg5KNf5CRcM-a2TIIbvAPnbLSaby00000]--></g></svg>