<?xml version="1.0" encoding="us-ascii" standalone="no"?><svg xmlns="http://www.w3.org/2000/svg" xmlns:xlink="http://www.w3.org/1999/xlink" contentStyleType="text/css" height="672px" preserveAspectRatio="none" style="width:260px;height:672px;background:#FFFFFF;" version="1.1" viewBox="0 0 260 672" width="260px" zoomAndPan="magnify"><defs/><g><ellipse cx="124" cy="20" fill="#222222" rx="10" ry="10" style="stroke:#222222;stroke-width:1.0;"/><rect fill="#F1F1F1" height="33.9688" rx="12.5" ry="12.5" style="stroke:#181818;stroke-width:0.5;" width="226" x="11" y="50"/><text fill="#000000" font-family="sans-serif" font-size="12" lengthAdjust="spacing" textLength="206" x="21" y="71.1387">Initialize a = 0, b = 1, and fib = 1</text><polygon fill="#F1F1F1" points="104,103.9688,144,103.9688,156,115.9688,144,127.9688,104,127.9688,92,115.9688,104,103.9688" style="stroke:#181818;stroke-width:0.5;"/><text fill="#000000" font-family="sans-serif" font-size="11" lengthAdjust="spacing" textLength="40" x="104" y="119.7769">n &lt;= 1</text><text fill="#000000" font-family="sans-serif" font-size="11" lengthAdjust="spacing" textLength="20" x="72" y="113.3745">yes</text><text fill="#000000" font-family="sans-serif" font-size="11" lengthAdjust="spacing" textLength="14" x="156" y="113.3745">no</text><rect fill="#F1F1F1" height="33.9688" rx="12.5" ry="12.5" style="stroke:#181818;stroke-width:0.5;" width="74" x="23" y="137.9688"/><text fill="#000000" font-family="sans-serif" font-size="12" lengthAdjust="spacing" textLength="54" x="33" y="159.1074">Return n</text><rect fill="#555555" height="6" rx="2.5" ry="2.5" style="stroke:#555555;stroke-width:1.0;" width="132" x="117" y="137.9688"/><rect fill="#F1F1F1" height="33.9688" rx="12.5" ry="12.5" style="stroke:#181818;stroke-width:0.5;" width="74" x="139" y="163.9688"/><text fill="#000000" font-family="sans-serif" font-size="12" lengthAdjust="spacing" textLength="54" x="149" y="185.1074">Set i = 2</text><rect fill="#F1F1F1" height="33.9688" rx="12.5" ry="12.5" style="stroke:#181818;stroke-width:0.5;" width="87" x="132.5" y="261.9375"/><text fill="#000000" font-family="sans-serif" font-size="12" lengthAdjust="spacing" textLength="67" x="142.5" y="283.0762">fib = a + b</text><rect fill="#F1F1F1" height="33.9688" rx="12.5" ry="12.5" style="stroke:#181818;stroke-width:0.5;" width="54" x="149" y="315.9063"/><text fill="#000000" font-family="sans-serif" font-size="12" lengthAdjust="spacing" textLength="34" x="159" y="337.0449">a = b</text><rect fill="#F1F1F1" height="33.9688" rx="12.5" ry="12.5" style="stroke:#181818;stroke-width:0.5;" width="61" x="145.5" y="377.375"/><text fill="#000000" font-family="sans-serif" font-size="12" lengthAdjust="spacing" textLength="41" x="155.5" y="398.5137">b = fib</text><rect fill="#F1F1F1" height="33.9688" rx="12.5" ry="12.5" style="stroke:#181818;stroke-width:0.5;" width="90" x="131" y="431.3438"/><text fill="#000000" font-family="sans-serif" font-size="12" lengthAdjust="spacing" textLength="70" x="141" y="452.4824">Increment i</text><polygon fill="#F1F1F1" points="176,217.9375,188,229.9375,176,241.9375,164,229.9375,176,217.9375" style="stroke:#181818;stroke-width:0.5;"/><polygon fill="#F1F1F1" points="158,485.3125,194,485.3125,206,497.3125,194,509.3125,158,509.3125,146,497.3125,158,485.3125" style="stroke:#181818;stroke-width:0.5;"/><text fill="#000000" font-family="sans-serif" font-size="11" lengthAdjust="spacing" textLength="36" x="158" y="501.1206">i &lt;= n</text><rect fill="#555555" height="6" rx="2.5" ry="2.5" style="stroke:#555555;stroke-width:1.0;" width="132" x="117" y="529.3125"/><polygon fill="#F1F1F1" points="124,541.3125,136,553.3125,124,565.3125,112,553.3125,124,541.3125" style="stroke:#181818;stroke-width:0.5;"/><rect fill="#F1F1F1" height="33.9688" rx="12.5" ry="12.5" style="stroke:#181818;stroke-width:0.5;" width="81" x="83.5" y="585.3125"/><text fill="#000000" font-family="sans-serif" font-size="12" lengthAdjust="spacing" textLength="61" x="93.5" y="606.4512">Return fib</text><ellipse cx="124" cy="650.2813" fill="none" rx="11" ry="11" style="stroke:#222222;stroke-width:1.0;"/><ellipse cx="124" cy="650.2813" fill="#222222" rx="6" ry="6" style="stroke:#222222;stroke-width:1.0;"/><line style="stroke:#181818;stroke-width:1.0;" x1="124" x2="124" y1="30" y2="50"/><polygon fill="#181818" points="120,40,124,50,128,40,124,44" style="stroke:#181818;stroke-width:1.0;"/><line style="stroke:#181818;stroke-width:1.0;" x1="176" x2="176" y1="295.9063" y2="315.9063"/><polygon fill="#181818" points="172,305.9063,176,315.9063,180,305.9063,176,309.9063" style="stroke:#181818;stroke-width:1.0;"/><line style="stroke:#181818;stroke-width:1.0;" x1="176" x2="176" y1="349.875" y2="377.375"/><polygon fill="#181818" points="172,367.375,176,377.375,180,367.375,176,371.375" style="stroke:#181818;stroke-width:1.0;"/><line style="stroke:#181818;stroke-width:1.0;" x1="176" x2="176" y1="411.3438" y2="431.3438"/><polygon fill="#181818" points="172,421.3438,176,431.3438,180,421.3438,176,425.3438" style="stroke:#181818;stroke-width:1.0;"/><line style="stroke:#181818;stroke-width:1.0;" x1="176" x2="176" y1="241.9375" y2="261.9375"/><polygon fill="#181818" points="172,251.9375,176,261.9375,180,251.9375,176,255.9375" style="stroke:#181818;stroke-width:1.0;"/><line style="stroke:#181818;stroke-width:1.0;" x1="206" x2="233" y1="497.3125" y2="497.3125"/><polygon fill="#181818" points="229,369.875,233,359.875,237,369.875,233,365.875" style="stroke:#181818;stroke-width:1.0;"/><line style="stroke:#181818;stroke-width:1.0;" x1="233" x2="233" y1="229.9375" y2="497.3125"/><line style="stroke:#181818;stroke-width:1.0;" x1="233" x2="188" y1="229.9375" y2="229.9375"/><polygon fill="#181818" points="198,225.9375,188,229.9375,198,233.9375,194,229.9375" style="stroke:#181818;stroke-width:1.0;"/><line style="stroke:#181818;stroke-width:1.0;" x1="176" x2="176" y1="465.3125" y2="485.3125"/><polygon fill="#181818" points="172,475.3125,176,485.3125,180,475.3125,176,479.3125" style="stroke:#181818;stroke-width:1.0;"/><line style="stroke:#181818;stroke-width:1.0;" x1="176" x2="176" y1="197.9375" y2="217.9375"/><polygon fill="#181818" points="172,207.9375,176,217.9375,180,207.9375,176,211.9375" style="stroke:#181818;stroke-width:1.0;"/><line style="stroke:#181818;stroke-width:1.0;" x1="176" x2="176" y1="143.9688" y2="163.9688"/><polygon fill="#181818" points="172,153.9688,176,163.9688,180,153.9688,176,157.9688" style="stroke:#181818;stroke-width:1.0;"/><line style="stroke:#181818;stroke-width:1.0;" x1="176" x2="176" y1="509.3125" y2="529.3125"/><polygon fill="#181818" points="172,519.3125,176,529.3125,180,519.3125,176,523.3125" style="stroke:#181818;stroke-width:1.0;"/><line style="stroke:#181818;stroke-width:1.0;" x1="92" x2="60" y1="115.9688" y2="115.9688"/><line style="stroke:#181818;stroke-width:1.0;" x1="60" x2="60" y1="115.9688" y2="137.9688"/><polygon fill="#181818" points="56,127.9688,60,137.9688,64,127.9688,60,131.9688" style="stroke:#181818;stroke-width:1.0;"/><line style="stroke:#181818;stroke-width:1.0;" x1="156" x2="188" y1="115.9688" y2="115.9688"/><line style="stroke:#181818;stroke-width:1.0;" x1="188" x2="188" y1="115.9688" y2="137.9688"/><polygon fill="#181818" points="184,127.9688,188,137.9688,192,127.9688,188,131.9688" style="stroke:#181818;stroke-width:1.0;"/><line style="stroke:#181818;stroke-width:1.0;" x1="60" x2="60" y1="171.9375" y2="553.3125"/><line style="stroke:#181818;stroke-width:1.0;" x1="60" x2="112" y1="553.3125" y2="553.3125"/><polygon fill="#181818" points="102,549.3125,112,553.3125,102,557.3125,106,553.3125" style="stroke:#181818;stroke-width:1.0;"/><line style="stroke:#181818;stroke-width:1.0;" x1="188" x2="188" y1="535.3125" y2="553.3125"/><line style="stroke:#181818;stroke-width:1.0;" x1="188" x2="136" y1="553.3125" y2="553.3125"/><polygon fill="#181818" points="146,549.3125,136,553.3125,146,557.3125,142,553.3125" style="stroke:#181818;stroke-width:1.0;"/><line style="stroke:#181818;stroke-width:1.0;" x1="124" x2="124" y1="83.9688" y2="103.9688"/><polygon fill="#181818" points="120,93.9688,124,103.9688,128,93.9688,124,97.9688" style="stroke:#181818;stroke-width:1.0;"/><line style="stroke:#181818;stroke-width:1.0;" x1="124" x2="124" y1="565.3125" y2="585.3125"/><polygon fill="#181818" points="120,575.3125,124,585.3125,128,575.3125,124,579.3125" style="stroke:#181818;stroke-width:1.0;"/><line style="stroke:#181818;stroke-width:1.0;" x1="124" x2="124" y1="619.2813" y2="639.2813"/><polygon fill="#181818" points="120,629.2813,124,639.2813,128,629.2813,124,633.2813" style="stroke:#181818;stroke-width:1.0;"/><!--SRC=[JOwn3i8m34JtVCMDL7G0nXO-e2jyGGgEQb7SAZ52yFKuGGKc-tpMtKlgexgc4rRs8xy87WTiQlGsjZMyN12uYDOv3bW9zYOgw422rPDIvO3cI7gF0caTZOdiQyhdCCMh3VDFf61BsRL5Hvh9QrdD_1HuhD6toorZ_5JsxUkhEpb7kf5Ow7yW7WEFriwPKJ81PVvCOGi7vnRG4fPqcjy0]--></g></svg>